<svg xmlns="http://www.w3.org/2000/svg" xmlns:xlink="http://www.w3.org/1999/xlink" width="262.5" viewBox="0 0 262.5 262.5" height="262.5" version="1.0"><defs><clipPath id="a"><path d="M 242 242 L 246.84375 242 L 246.84375 246.230469 L 242 246.230469 Z M 242 242"/></clipPath><clipPath id="b"><path d="M 4.59375 8 L 9 8 L 9 243 L 4.59375 243 Z M 4.59375 8"/></clipPath><clipPath id="c"><path d="M 4.59375 242 L 9 242 L 9 246.230469 L 4.59375 246.230469 Z M 4.59375 242"/></clipPath><clipPath id="d"><path d="M 242 8 L 246.84375 8 L 246.84375 243 L 242 243 Z M 242 8"/></clipPath><clipPath id="e"><path d="M 8 242 L 243 242 L 243 246.230469 L 8 246.230469 Z M 8 242"/></clipPath><clipPath id="f"><path d="M 242 3.980469 L 246.84375 3.980469 L 246.84375 9 L 242 9 Z M 242 3.980469"/></clipPath><clipPath id="g"><path d="M 4.59375 3.980469 L 9 3.980469 L 9 9 L 4.59375 9 Z M 4.59375 3.980469"/></clipPath><clipPath id="h"><path d="M 8 3.980469 L 243 3.980469 L 243 9 L 8 9 Z M 8 3.980469"/></clipPath><clipPath id="i"><path d="M 254 254 L 258.179688 254 L 258.179688 258.789062 L 254 258.789062 Z M 254 254"/></clipPath><clipPath id="j"><path d="M 15.929688 20 L 21 20 L 21 255 L 15.929688 255 Z M 15.929688 20"/></clipPath><clipPath id="k"><path d="M 15.929688 254 L 21 254 L 21 258.789062 L 15.929688 258.789062 Z M 15.929688 254"/></clipPath><clipPath id="l"><path d="M 254 20 L 258.179688 20 L 258.179688 255 L 254 255 Z M 254 20"/></clipPath><clipPath id="m"><path d="M 20 254 L 255 254 L 255 258.789062 L 20 258.789062 Z M 20 254"/></clipPath><clipPath id="n"><path d="M 254 16.539062 L 258.179688 16.539062 L 258.179688 21 L 254 21 Z M 254 16.539062"/></clipPath><clipPath id="o"><path d="M 15.929688 16.539062 L 21 16.539062 L 21 21 L 15.929688 21 Z M 15.929688 16.539062"/></clipPath><clipPath id="p"><path d="M 20 16.539062 L 255 16.539062 L 255 21 L 20 21 Z M 20 16.539062"/></clipPath><g id="q"><path d="M 50.515625 0 L 50.453125 -34.171875 L 33.5 -5.6875 L 30.421875 -5.6875 L 13.46875 -33.96875 L 13.46875 0 L 7.03125 0 L 7.03125 -46.90625 L 12.53125 -46.90625 L 32.09375 -13.9375 L 51.390625 -46.90625 L 56.890625 -46.90625 L 56.953125 0 Z M 50.515625 0"/></g><g id="r"><path d="M 73.296875 -46.90625 L 57.625 0 L 50.578125 0 L 37.78125 -37.453125 L 24.984375 0 L 17.828125 0 L 2.140625 -46.90625 L 9.046875 -46.90625 L 21.703125 -8.78125 L 34.90625 -46.90625 L 41.078125 -46.90625 L 54 -8.578125 L 66.9375 -46.90625 Z M 73.296875 -46.90625"/></g></defs><g clip-path="url(#a)"><path fill="#D9B45E" d="M 242.835938 242.285156 L 250.222656 242.285156 L 250.222656 249.671875 L 242.835938 249.671875 Z M 242.835938 242.285156"/></g><g clip-path="url(#b)"><path fill="#D9B45E" d="M 1.222656 8.144531 L 8.691406 8.144531 L 8.691406 242.285156 L 1.222656 242.285156 Z M 1.222656 8.144531"/></g><g clip-path="url(#c)"><path fill="#D9B45E" d="M 1.222656 242.285156 L 8.691406 242.285156 L 8.691406 249.671875 L 1.222656 249.671875 Z M 1.222656 242.285156"/></g><g clip-path="url(#d)"><path fill="#D9B45E" d="M 242.835938 8.144531 L 250.222656 8.144531 L 250.222656 242.285156 L 242.835938 242.285156 Z M 242.835938 8.144531"/></g><g clip-path="url(#e)"><path fill="#D9B45E" d="M 8.691406 242.285156 L 242.835938 242.285156 L 242.835938 249.671875 L 8.691406 249.671875 Z M 8.691406 242.285156"/></g><g clip-path="url(#f)"><path fill="#D9B45E" d="M 242.835938 0.671875 L 250.222656 0.671875 L 250.222656 8.144531 L 242.835938 8.144531 Z M 242.835938 0.671875"/></g><g clip-path="url(#g)"><path fill="#D9B45E" d="M 1.222656 0.671875 L 8.691406 0.671875 L 8.691406 8.144531 L 1.222656 8.144531 Z M 1.222656 0.671875"/></g><g clip-path="url(#h)"><path fill="#D9B45E" d="M 8.691406 0.671875 L 242.835938 0.671875 L 242.835938 8.144531 L 8.691406 8.144531 Z M 8.691406 0.671875"/></g><g clip-path="url(#i)"><path fill="#D9B45E" d="M 254.171875 254.84375 L 261.558594 254.84375 L 261.558594 262.230469 L 254.171875 262.230469 Z M 254.171875 254.84375"/></g><g clip-path="url(#j)"><path fill="#D9B45E" d="M 12.558594 20.699219 L 20.027344 20.699219 L 20.027344 254.84375 L 12.558594 254.84375 Z M 12.558594 20.699219"/></g><g clip-path="url(#k)"><path fill="#D9B45E" d="M 12.558594 254.84375 L 20.027344 254.84375 L 20.027344 262.230469 L 12.558594 262.230469 Z M 12.558594 254.84375"/></g><g clip-path="url(#l)"><path fill="#D9B45E" d="M 254.171875 20.699219 L 261.558594 20.699219 L 261.558594 254.84375 L 254.171875 254.84375 Z M 254.171875 20.699219"/></g><g clip-path="url(#m)"><path fill="#D9B45E" d="M 20.027344 254.84375 L 254.171875 254.84375 L 254.171875 262.230469 L 20.027344 262.230469 Z M 20.027344 254.84375"/></g><g clip-path="url(#n)"><path fill="#D9B45E" d="M 254.171875 13.230469 L 261.558594 13.230469 L 261.558594 20.699219 L 254.171875 20.699219 Z M 254.171875 13.230469"/></g><g clip-path="url(#o)"><path fill="#D9B45E" d="M 12.558594 13.230469 L 20.027344 13.230469 L 20.027344 20.699219 L 12.558594 20.699219 Z M 12.558594 13.230469"/></g><g clip-path="url(#p)"><path fill="#D9B45E" d="M 20.027344 13.230469 L 254.171875 13.230469 L 254.171875 20.699219 L 20.027344 20.699219 Z M 20.027344 13.230469"/></g><g fill="#D9B45E"><use x="99.258" y="114.83" xmlns:xlink="http://www.w3.org/1999/xlink" xlink:href="#q" xlink:type="simple" xlink:actuate="onLoad" xlink:show="embed"/></g><g fill="#D9B45E"><use x="93.528" y="187.755" xmlns:xlink="http://www.w3.org/1999/xlink" xlink:href="#r" xlink:type="simple" xlink:actuate="onLoad" xlink:show="embed"/></g></svg>